<svg width="304" height="79" viewBox="0 0 304 79" fill="none" xmlns="http://www.w3.org/2000/svg">
<g clip-path="url(#clip0_77_2)">
<path d="M42.7842 77.8474C21.5506 79.6018 2.91501 63.8528 1.15577 42.6671C-0.603463 21.4815 15.199 2.90702 36.4325 1.1526C57.6661 -0.601824 76.312 15.1574 78.061 36.3328" stroke="#FF5E2C" stroke-width="2" stroke-miterlimit="10"/>
<path d="M78.1019 43.5749C78.9435 43.5749 79.6259 42.8945 79.6259 42.0551C79.6259 41.2157 78.9435 40.5353 78.1019 40.5353C77.2602 40.5353 76.5779 41.2157 76.5779 42.0551C76.5779 42.8945 77.2602 43.5749 78.1019 43.5749Z" fill="#FF5E2C" stroke="#FF5E2C" stroke-miterlimit="10"/>
<path d="M76.4347 52.9998C77.2764 52.9998 77.9587 52.3194 77.9587 51.48C77.9587 50.6407 77.2764 49.9602 76.4347 49.9602C75.593 49.9602 74.9107 50.6407 74.9107 51.48C74.9107 52.3194 75.593 52.9998 76.4347 52.9998Z" fill="#FF5E2C" stroke="#FF5E2C" stroke-miterlimit="10"/>
<path d="M58.1877 75.0934C59.0294 75.0934 59.7117 74.4129 59.7117 73.5735C59.7117 72.7342 59.0294 72.0537 58.1877 72.0537C57.3461 72.0537 56.6638 72.7342 56.6638 73.5735C56.6638 74.4129 57.3461 75.0934 58.1877 75.0934Z" fill="#FF5E2C" stroke="#FF5E2C" stroke-miterlimit="10"/>
<path d="M72.19 61.9454C73.0317 61.9454 73.714 61.265 73.714 60.4256C73.714 59.5862 73.0317 58.9058 72.19 58.9058C71.3483 58.9058 70.666 59.5862 70.666 60.4256C70.666 61.265 71.3483 61.9454 72.19 61.9454Z" fill="#FF5E2C" stroke="#FF5E2C" stroke-miterlimit="10"/>
<path d="M48.604 78.2656C49.4457 78.2656 50.128 77.5851 50.128 76.7458C50.128 75.9064 49.4457 75.226 48.604 75.226C47.7623 75.226 47.08 75.9064 47.08 76.7458C47.08 77.5851 47.7623 78.2656 48.604 78.2656Z" fill="#FF5E2C" stroke="#FF5E2C" stroke-miterlimit="10"/>
<path d="M65.4293 70.0952C66.8189 70.0952 67.9454 68.9718 67.9454 67.586C67.9454 66.2002 66.8189 65.0768 65.4293 65.0768C64.0397 65.0768 62.9131 66.2002 62.9131 67.586C62.9131 68.9718 64.0397 70.0952 65.4293 70.0952Z" fill="#FF5E2C" stroke="#FF5E2C" stroke-miterlimit="10"/>
<path d="M24.4145 15.5348V17.5544C24.4145 17.5544 30.9298 16.7384 30.623 19.6454L30.3161 22.5525L23.5656 50.5722C23.5656 50.5722 23.0644 56.3863 15.291 56.3659V58.3753H53.9942C53.9942 58.3753 59.2208 48.1242 59.0878 45.3906H58.1775C58.1775 45.3906 49.3609 56.2639 44.8912 56.3251L40.4215 56.3863L33.63 56.3251C33.63 56.3251 29.5797 55.9069 29.549 52.2859C29.5183 48.6648 32.8118 36.9551 32.8118 36.9551C32.8118 36.9551 33.0777 36.0065 33.6914 35.9452C34.3051 35.884 39.8283 35.9452 39.8283 35.9452C39.8283 35.9452 43.5206 34.5784 43.807 46.074L44.8503 46.1046C44.8503 46.1046 49.0642 29.7334 49.0642 27.1221L48.021 27.1527C48.021 27.1527 44.6252 34.7008 40.8408 34.8028L37.0564 34.9048L34.7756 34.8742C34.7756 34.8742 33.5687 35.2924 33.7323 33.8032C33.896 32.314 37.752 17.6564 37.752 17.6564C37.752 17.6564 37.486 16.6466 38.7032 16.616C39.9203 16.5854 50.9769 16.5854 50.9769 16.5854C50.9769 16.5854 58.0957 19.4822 58.1877 25.7043H59.1083V15.545H24.4145V15.5348Z" fill="#FF5E2C" stroke="#FF5E2C" stroke-miterlimit="10"/>
<path d="M85.0263 55.4581C83.666 54.3259 82.9909 52.6021 82.9909 50.2867C82.9909 47.9712 83.6148 46.4412 84.8627 45.3396C86.1105 44.238 87.9925 43.6872 90.5086 43.6872H96.8398L97.1364 47.196H90.5188C89.3732 47.196 88.5141 47.451 87.9515 47.961C87.389 48.471 87.1026 49.2462 87.1026 50.2867C87.1026 51.4189 87.4811 52.2451 88.2277 52.7959C88.9744 53.3365 90.1199 53.6119 91.6541 53.6119C93.3315 53.6119 94.5794 53.4385 95.3976 53.0815C96.2159 52.7245 96.6352 52.1635 96.6352 51.4087L97.0852 54.5401C96.6966 55.1419 96.2261 55.6315 95.6635 56.0191C95.101 56.4067 94.4464 56.6923 93.6997 56.8861C92.9531 57.0799 92.1144 57.1717 91.1836 57.1717C88.4323 57.1717 86.3764 56.6005 85.0161 55.4683L85.0263 55.4581ZM96.6454 42.7488C96.6454 41.2901 96.2568 40.1579 95.4794 39.3521C94.7021 38.5463 93.5975 38.1383 92.1655 38.1383C91.2757 38.1383 90.4063 38.2709 89.5574 38.5463C88.7084 38.8217 87.9515 39.1991 87.2867 39.6785L84.0853 37.4957C84.9342 36.4859 86.0389 35.6903 87.4299 35.1293C88.8107 34.5683 90.3449 34.2827 92.0326 34.2827C93.8839 34.2827 95.459 34.6091 96.7784 35.2619C98.0978 35.9147 99.1002 36.8531 99.7855 38.0873C100.471 39.3215 100.819 40.8107 100.819 42.555V56.8351H96.6557V42.7386L96.6454 42.7488Z" fill="#FF5E2C"/>
<path d="M111.64 56.7739C110.484 56.5189 109.41 56.1313 108.408 55.6213C107.405 55.1113 106.485 54.4687 105.636 53.6935L108.234 50.5009C109.441 51.4189 110.627 52.1023 111.824 52.5613C113.01 53.0203 114.187 53.2447 115.342 53.2447C117.071 53.2447 118.37 52.9795 119.239 52.4389C120.109 51.8983 120.538 51.1027 120.538 50.0316C120.538 49.3176 120.303 48.7872 119.833 48.4302C119.362 48.0732 118.769 47.8386 118.073 47.7162C117.368 47.5938 116.386 47.4816 115.107 47.3796C114.995 47.3796 114.872 47.3796 114.739 47.3694C114.616 47.3694 114.493 47.349 114.371 47.3388C114.309 47.3388 114.258 47.3388 114.197 47.3286C114.135 47.3286 114.084 47.3184 114.023 47.3184C112.581 47.2062 111.353 46.992 110.351 46.686C109.349 46.38 108.52 45.8088 107.845 44.9622C107.18 44.1156 106.843 42.912 106.843 41.3411C106.843 39.7703 107.16 38.4647 107.815 37.4243C108.459 36.3839 109.42 35.5985 110.689 35.0783C111.967 34.5581 113.563 34.2928 115.475 34.2928C116.631 34.2928 117.736 34.3948 118.789 34.6091C119.843 34.8233 120.845 35.1395 121.807 35.5577C122.768 35.9759 123.689 36.5063 124.578 37.1489L121.94 40.3415C120.825 39.6275 119.72 39.0971 118.646 38.7401C117.562 38.3831 116.508 38.2097 115.475 38.2097C113.982 38.2097 112.867 38.4647 112.121 38.9747C111.374 39.4847 111.006 40.2395 111.006 41.2595C111.006 41.8613 111.22 42.3102 111.64 42.606C112.059 42.9018 112.591 43.1058 113.235 43.2078C113.88 43.3098 114.8 43.3914 115.987 43.4628C116.069 43.473 116.161 43.4832 116.253 43.4832C116.345 43.4832 116.447 43.4832 116.539 43.5036H116.672C116.672 43.5036 116.754 43.5036 116.805 43.524C118.37 43.626 119.689 43.83 120.784 44.1462C121.878 44.4624 122.799 45.0846 123.545 46.0128C124.292 46.941 124.66 48.2874 124.66 50.0418C124.66 51.6433 124.312 52.9693 123.627 54.0097C122.942 55.0603 121.909 55.8457 120.528 56.3761C119.147 56.9065 117.408 57.1717 115.322 57.1717C114.003 57.1717 112.765 57.0391 111.619 56.7841L111.64 56.7739Z" fill="#FF5E2C"/>
<path d="M127.268 34.6091H131.738L138.591 53.9281L136.167 58.661L127.279 34.6091H127.268ZM147.009 34.6091L137.517 62.0474C137.169 63.0572 136.719 63.863 136.167 64.4546C135.604 65.0463 134.919 65.4747 134.101 65.7297C133.283 65.9847 132.28 66.1173 131.094 66.1173H130.214V61.9148H131.094C131.912 61.9148 132.556 61.7516 133.037 61.4252C133.518 61.0988 133.937 60.5276 134.295 59.732L142.539 34.6091H147.009Z" fill="#FF5E2C"/>
<path d="M156.245 55.7335C154.608 54.7747 153.33 53.4181 152.43 51.6637C151.529 49.9092 151.079 47.8692 151.079 45.564V37.0163C151.079 34.7008 151.529 32.671 152.43 30.9166C153.33 29.1622 154.598 27.7954 156.245 26.8365C157.881 25.8675 159.784 25.3881 161.942 25.3881C163.732 25.3881 165.378 25.7655 166.882 26.5305C168.385 27.2955 169.643 28.3768 170.646 29.7742C171.658 31.1716 172.344 32.7934 172.702 34.6396H168.212C167.935 33.6706 167.485 32.8036 166.851 32.0386C166.217 31.2736 165.47 30.682 164.611 30.274C163.752 29.8558 162.862 29.6518 161.952 29.6518C160.673 29.6518 159.559 29.9578 158.597 30.5698C157.636 31.1818 156.889 32.0488 156.367 33.1504C155.836 34.252 155.57 35.5475 155.57 37.0163V45.564C155.57 47.0226 155.836 48.3078 156.367 49.4196C156.899 50.5314 157.646 51.3985 158.597 52.0003C159.559 52.6123 160.673 52.9081 161.952 52.9081C162.883 52.9081 163.773 52.7143 164.621 52.3267C165.47 51.9391 166.217 51.3678 166.851 50.613C167.485 49.8582 167.946 48.9606 168.212 47.91H172.702C172.344 49.7562 171.658 51.3679 170.636 52.7755C169.623 54.1729 168.355 55.2541 166.851 56.0191C165.348 56.7841 163.711 57.1615 161.931 57.1615C159.773 57.1615 157.871 56.6821 156.234 55.7233L156.245 55.7335Z" fill="#FF5E2C"/>
<path d="M182.091 56.0293C180.721 55.2745 179.667 54.1729 178.941 52.7245C178.215 51.2761 177.857 49.5318 177.857 47.4918V43.8708C177.857 41.8613 178.215 40.1375 178.941 38.6993C179.667 37.2611 180.71 36.1697 182.091 35.4251C183.462 34.6804 185.119 34.303 187.052 34.303C188.985 34.303 190.642 34.6804 192.012 35.4251C193.383 36.1799 194.436 37.2713 195.163 38.6993C195.889 40.1375 196.247 41.8613 196.247 43.8708V47.553C196.247 49.5828 195.889 51.3067 195.163 52.7449C194.436 54.1831 193.393 55.2745 192.012 56.0293C190.642 56.7841 188.985 57.1615 187.052 57.1615C185.119 57.1615 183.462 56.7841 182.091 56.0293ZM190.611 51.5719C191.45 50.613 191.869 49.2768 191.869 47.5428V43.8606C191.869 42.1367 191.45 40.8005 190.611 39.8519C189.772 38.9135 188.586 38.4341 187.062 38.4341C185.538 38.4341 184.341 38.9033 183.513 39.8519C182.674 40.7903 182.255 42.1265 182.255 43.8606V47.5428C182.255 49.2666 182.674 50.613 183.513 51.5719C184.352 52.5307 185.538 53.0101 187.062 53.0101C188.586 53.0101 189.783 52.5307 190.611 51.5719Z" fill="#FF5E2C"/>
<path d="M206.311 48.1242C206.311 49.6849 206.71 50.8885 207.508 51.7351C208.306 52.5817 209.421 53.0101 210.873 53.0101C212.325 53.0101 213.41 52.6327 214.197 51.8779C214.985 51.1231 215.384 50.0419 215.384 48.6444L215.68 53.2957C215.22 54.3973 214.473 55.3153 213.45 56.0599C212.417 56.8046 211.149 57.1718 209.646 57.1718C207.181 57.1718 205.278 56.3863 203.949 54.8053C202.609 53.2243 201.944 51.0007 201.944 48.1344V34.6193H206.321V48.1344L206.311 48.1242ZM215.373 34.6091H219.731V56.8352H215.373V34.6091Z" fill="#FF5E2C"/>
<path d="M226.389 34.6091H230.767V56.8351H226.389V34.6091ZM239.921 43.371C239.921 41.8001 239.512 40.5863 238.693 39.7295C237.875 38.8727 236.73 38.4443 235.257 38.4443C233.784 38.4443 232.72 38.8217 231.943 39.5765C231.166 40.3313 230.777 41.3921 230.777 42.7692L230.327 38.4851C231.012 37.1387 231.912 36.1085 233.027 35.3843C234.132 34.6601 235.369 34.2928 236.709 34.2928C239.133 34.2928 241.005 35.0783 242.324 36.6593C243.644 38.2403 244.309 40.4639 244.309 43.3506V56.8453H239.931V43.371H239.921Z" fill="#FF5E2C"/>
<path d="M249.239 34.609H259.293V38.5463H249.239V34.609ZM252.788 55.4581C251.949 54.4687 251.53 52.9999 251.53 51.0618V28.1422H255.907V51.1026C255.907 51.6432 256.02 52.0615 256.235 52.3573C256.449 52.6531 256.767 52.7959 257.176 52.7959H259.283V56.9473H256.746C254.946 56.9473 253.627 56.4475 252.788 55.4581Z" fill="#FF5E2C"/>
<path d="M269.153 56.0089C267.69 55.2337 266.575 54.1015 265.818 52.6123C265.051 51.1231 264.673 49.3176 264.673 47.2062V44.697C264.673 42.4938 265.041 40.6169 265.778 39.0665C266.514 37.5059 267.588 36.3227 268.989 35.5067C270.39 34.6907 272.078 34.2827 274.062 34.2827C275.924 34.2827 277.509 34.7519 278.829 35.6699C280.148 36.5981 281.15 37.9445 281.846 39.6989C282.541 41.4533 282.889 43.5648 282.889 46.0128V47.4714H267.854V43.9626H278.716C278.583 42.147 278.123 40.7393 277.305 39.7295C276.497 38.7197 275.412 38.2199 274.052 38.2199C272.395 38.2199 271.106 38.7605 270.196 39.8519C269.286 40.9331 268.836 42.4734 268.836 44.4522V47.2776C268.836 49.1238 269.327 50.5315 270.298 51.5209C271.27 52.5103 272.651 52.9999 274.441 52.9999C275.331 52.9999 276.21 52.8265 277.08 52.4695C277.949 52.1125 278.737 51.6127 279.422 50.9701L282.296 53.8363C281.191 54.8971 279.954 55.7131 278.583 56.2843C277.213 56.8657 275.832 57.1513 274.441 57.1513C272.375 57.1513 270.615 56.7637 269.153 55.9987V56.0089Z" fill="#FF5E2C"/>
<path d="M288.883 34.6091H293.26V56.8351H288.883V34.6091ZM299.684 38.8115C299.101 38.5667 298.415 38.4443 297.648 38.4443C296.257 38.4443 295.183 38.8217 294.416 39.5867C293.649 40.3517 293.271 41.4125 293.271 42.7692L292.821 38.4851C293.506 37.1591 294.396 36.1289 295.48 35.3945C296.564 34.6601 297.771 34.2928 299.09 34.2928C300.103 34.2928 301.024 34.4356 301.852 34.7315C302.67 35.0273 303.397 35.4557 304.01 36.0269L301.157 39.8825C300.768 39.4133 300.287 39.0563 299.694 38.8115H299.684Z" fill="#FF5E2C"/>
</g>
<defs>
<clipPath id="clip0_77_2">
<rect width="304" height="79" fill="white"/>
</clipPath>
</defs>
</svg>
