<?xml version="1.0" encoding="UTF-8"?>
<svg id="_Слой_2" data-name="Слой 2" xmlns="http://www.w3.org/2000/svg" viewBox="0 0 297.22 77.45">
  <defs>
    <style>
      .cls-1 {
        fill: none;
        stroke-width: 2px;
      }

      .cls-1, .cls-2 {
        stroke: #1d1d1b;
        stroke-miterlimit: 10;
      }

      .cls-2, .cls-3 {
        fill: #1d1d1b;
      }

      .cls-3 {
        stroke-width: 0px;
      }
    </style>
  </defs>
  <g id="_Слой_1-2" data-name="Слой 1">
    <g>
      <g>
        <path class="cls-1" d="m41.83,76.32C21.07,78.04,2.85,62.6,1.13,41.83S14.86,2.85,35.62,1.13s38.99,13.73,40.7,34.49"/>
        <circle class="cls-2" cx="76.36" cy="41.23" r="1.49"/>
        <circle class="cls-2" cx="74.73" cy="50.47" r="1.49"/>
        <circle class="cls-2" cx="56.89" cy="72.13" r="1.49"/>
        <circle class="cls-2" cx="70.58" cy="59.24" r="1.49"/>
        <circle class="cls-2" cx="47.52" cy="75.24" r="1.49"/>
        <circle class="cls-2" cx="63.97" cy="66.26" r="2.46"/>
        <path class="cls-2" d="m23.87,15.23v1.98s6.37-.8,6.07,2.05l-.3,2.85-6.6,27.47s-.49,5.7-8.09,5.68v1.97h37.84s5.11-10.05,4.98-12.73h-.89s-8.62,10.66-12.99,10.72l-4.37.06-6.64-.06s-3.96-.41-3.99-3.96,3.19-15.03,3.19-15.03c0,0,.26-.93.86-.99s6,0,6,0c0,0,3.61-1.34,3.89,9.93l1.02.03s4.12-16.05,4.12-18.61l-1.02.03s-3.32,7.4-7.02,7.5l-3.7.1-2.23-.03s-1.18.41-1.02-1.05,3.93-15.83,3.93-15.83c0,0-.26-.99.93-1.02s12-.03,12-.03c0,0,6.96,2.84,7.05,8.94h.9v-9.96H23.87Z"/>
      </g>
      <g>
        <path class="cls-3" d="m83.13,54.37c-1.33-1.11-1.99-2.8-1.99-5.07s.61-3.77,1.83-4.85c1.22-1.08,3.06-1.62,5.52-1.62h6.19l.29,3.44h-6.47c-1.12,0-1.96.25-2.51.75-.55.5-.83,1.26-.83,2.28,0,1.11.37,1.92,1.1,2.46.73.53,1.85.8,3.35.8,1.64,0,2.86-.17,3.66-.52.8-.35,1.21-.9,1.21-1.64l.44,3.07c-.38.59-.84,1.07-1.39,1.45-.55.38-1.19.66-1.92.85-.73.19-1.55.28-2.46.28-2.69,0-4.7-.56-6.03-1.67Zm11.36-12.46c0-1.43-.38-2.54-1.14-3.33-.76-.79-1.84-1.19-3.24-1.19-.87,0-1.72.13-2.55.4-.83.27-1.57.64-2.22,1.11l-3.13-2.14c.83-.99,1.91-1.77,3.27-2.32,1.35-.55,2.85-.83,4.5-.83,1.81,0,3.35.32,4.64.96,1.29.64,2.27,1.56,2.94,2.77.67,1.21,1.01,2.67,1.01,4.38v14h-4.07v-13.82Z"/>
        <path class="cls-3" d="m109.15,55.66c-1.13-.25-2.18-.63-3.16-1.13s-1.88-1.13-2.71-1.89l2.54-3.13c1.18.9,2.34,1.57,3.51,2.02,1.16.45,2.31.67,3.44.67,1.69,0,2.96-.26,3.81-.79.85-.53,1.27-1.31,1.27-2.36,0-.7-.23-1.22-.69-1.57-.46-.35-1.04-.58-1.72-.7-.69-.12-1.65-.23-2.9-.33-.11,0-.23,0-.36-.01-.12,0-.24-.02-.36-.03-.06,0-.11,0-.17-.01-.06,0-.11-.01-.17-.01-1.41-.11-2.61-.32-3.59-.62-.98-.3-1.79-.86-2.45-1.69-.65-.83-.98-2.01-.98-3.55s.31-2.82.95-3.84c.63-1.02,1.57-1.79,2.81-2.3,1.25-.51,2.81-.77,4.68-.77,1.13,0,2.21.1,3.24.31,1.03.21,2.01.52,2.95.93.94.41,1.84.93,2.71,1.56l-2.58,3.13c-1.09-.7-2.17-1.22-3.22-1.57-1.06-.35-2.09-.52-3.1-.52-1.46,0-2.55.25-3.28.75-.73.5-1.09,1.24-1.09,2.24,0,.59.21,1.03.62,1.32s.93.49,1.56.59c.63.1,1.53.18,2.69.25.08.01.17.02.26.02s.19,0,.28.02h.13s.08,0,.13.02c1.53.1,2.82.3,3.89.61,1.07.31,1.97.92,2.7,1.83.73.91,1.09,2.23,1.09,3.95,0,1.57-.34,2.87-1.01,3.89-.67,1.03-1.68,1.8-3.03,2.32s-3.05.78-5.09.78c-1.29,0-2.5-.13-3.62-.38Z"/>
        <path class="cls-3" d="m124.43,33.93h4.37l6.7,18.94-2.37,4.64-8.69-23.58Zm19.3,0l-9.28,26.9c-.34.99-.78,1.78-1.32,2.36-.55.58-1.22,1-2.02,1.25s-1.78.38-2.94.38h-.86v-4.12h.86c.8,0,1.43-.16,1.9-.48.47-.32.88-.88,1.23-1.66l8.06-24.63h4.37Z"/>
        <path class="cls-3" d="m152.76,54.64c-1.6-.94-2.85-2.27-3.73-3.99-.88-1.72-1.32-3.72-1.32-5.98v-8.38c0-2.27.44-4.26,1.32-5.98.88-1.72,2.12-3.06,3.73-4,1.6-.95,3.46-1.42,5.57-1.42,1.75,0,3.36.37,4.83,1.12,1.47.75,2.7,1.81,3.68,3.18.99,1.37,1.66,2.96,2.01,4.77h-4.39c-.27-.95-.71-1.8-1.33-2.55-.62-.75-1.35-1.33-2.19-1.73-.84-.41-1.71-.61-2.6-.61-1.25,0-2.34.3-3.28.9-.94.6-1.67,1.45-2.18,2.53-.52,1.08-.78,2.35-.78,3.79v8.38c0,1.43.26,2.69.78,3.78s1.25,1.94,2.18,2.53c.94.6,2.03.89,3.28.89.91,0,1.78-.19,2.61-.57.83-.38,1.56-.94,2.18-1.68.62-.74,1.07-1.62,1.33-2.65h4.39c-.35,1.81-1.02,3.39-2.02,4.77-.99,1.37-2.23,2.43-3.7,3.18-1.47.75-3.07,1.12-4.81,1.12-2.11,0-3.97-.47-5.57-1.41Z"/>
        <path class="cls-3" d="m178.03,54.93c-1.34-.74-2.37-1.82-3.08-3.24-.71-1.42-1.06-3.13-1.06-5.13v-3.55c0-1.97.35-3.66,1.06-5.07.71-1.41,1.73-2.48,3.08-3.21,1.34-.73,2.96-1.1,4.85-1.1s3.51.37,4.85,1.1c1.34.74,2.37,1.81,3.08,3.21.71,1.41,1.06,3.1,1.06,5.07v3.61c0,1.99-.35,3.68-1.06,5.09-.71,1.41-1.73,2.48-3.08,3.22-1.34.74-2.96,1.11-4.85,1.11s-3.51-.37-4.85-1.11Zm8.33-4.37c.82-.94,1.23-2.25,1.23-3.95v-3.61c0-1.69-.41-3-1.23-3.93-.82-.92-1.98-1.39-3.47-1.39s-2.66.46-3.47,1.39c-.82.92-1.23,2.23-1.23,3.93v3.61c0,1.69.41,3.01,1.23,3.95.82.94,1.98,1.41,3.47,1.41s2.66-.47,3.47-1.41Z"/>
        <path class="cls-3" d="m201.71,47.18c0,1.53.39,2.71,1.17,3.54.78.83,1.87,1.25,3.29,1.25s2.48-.37,3.25-1.11c.77-.74,1.16-1.8,1.16-3.17l.29,4.56c-.45,1.08-1.18,1.98-2.18,2.71-1.01.73-2.25,1.09-3.72,1.09-2.41,0-4.27-.77-5.57-2.32-1.31-1.55-1.96-3.73-1.96-6.54v-13.25h4.28v13.25Zm8.86-13.25h4.26v21.79h-4.26v-21.79Z"/>
        <path class="cls-3" d="m221.34,33.93h4.28v21.79h-4.28v-21.79Zm13.23,8.59c0-1.54-.4-2.73-1.2-3.57-.8-.84-1.92-1.26-3.36-1.26s-2.48.37-3.24,1.11c-.76.74-1.14,1.78-1.14,3.13l-.44-4.2c.67-1.32,1.55-2.33,2.64-3.04,1.08-.71,2.29-1.07,3.6-1.07,2.37,0,4.2.77,5.49,2.32,1.29,1.55,1.94,3.73,1.94,6.56v13.23h-4.28v-13.21Z"/>
        <path class="cls-3" d="m243.68,33.93h9.83v3.86h-9.83v-3.86Zm3.47,20.44c-.82-.97-1.23-2.41-1.23-4.31v-22.47h4.28v22.51c0,.53.11.94.32,1.23.21.29.52.43.92.43h2.06v4.07h-2.48c-1.76,0-3.05-.49-3.87-1.46Z"/>
        <path class="cls-3" d="m263.15,54.91c-1.43-.76-2.52-1.87-3.26-3.33-.75-1.46-1.12-3.23-1.12-5.3v-2.46c0-2.16.36-4,1.08-5.52.72-1.53,1.77-2.69,3.14-3.49,1.37-.8,3.02-1.2,4.96-1.2,1.82,0,3.37.46,4.66,1.36,1.29.91,2.27,2.23,2.95,3.95s1.02,3.79,1.02,6.19v1.43h-14.7v-3.44h10.62c-.13-1.78-.58-3.16-1.38-4.15-.79-.99-1.85-1.48-3.18-1.48-1.62,0-2.88.53-3.77,1.6-.89,1.06-1.33,2.57-1.33,4.51v2.77c0,1.81.48,3.19,1.43,4.16s2.3,1.45,4.05,1.45c.87,0,1.73-.17,2.58-.52.85-.35,1.62-.84,2.29-1.47l2.81,2.81c-1.08,1.04-2.29,1.84-3.63,2.4-1.34.57-2.69.85-4.05.85-2.02,0-3.74-.38-5.17-1.13Z"/>
        <path class="cls-3" d="m282.44,33.93h4.28v21.79h-4.28v-21.79Zm10.56,4.12c-.57-.24-1.24-.36-1.99-.36-1.36,0-2.41.37-3.16,1.12-.75.75-1.12,1.79-1.12,3.12l-.44-4.2c.67-1.3,1.54-2.31,2.6-3.03,1.06-.72,2.24-1.08,3.53-1.08.99,0,1.89.14,2.7.43.8.29,1.51.71,2.11,1.27l-2.79,3.78c-.38-.46-.85-.81-1.43-1.05Z"/>
      </g>
    </g>
  </g>
</svg>