<svg width="304" height="79" viewBox="0 0 304 79" fill="none" xmlns="http://www.w3.org/2000/svg">
<g clip-path="url(#clip0_24_101)">
<path d="M42.7842 77.8474C21.5506 79.6019 2.91501 63.8529 1.15578 42.6672C-0.60346 21.4815 15.199 2.90708 36.4325 1.15266C57.6661 -0.601763 76.312 15.1574 78.061 36.3329" stroke="#777777" stroke-width="2" stroke-miterlimit="10"/>
<path d="M78.1019 43.575C78.9435 43.575 79.6259 42.8946 79.6259 42.0552C79.6259 41.2158 78.9435 40.5354 78.1019 40.5354C77.2602 40.5354 76.5779 41.2158 76.5779 42.0552C76.5779 42.8946 77.2602 43.575 78.1019 43.575Z" fill="#777777" stroke="#777777" stroke-miterlimit="10"/>
<path d="M76.4347 52.9998C77.2764 52.9998 77.9587 52.3194 77.9587 51.48C77.9587 50.6407 77.2764 49.9602 76.4347 49.9602C75.593 49.9602 74.9107 50.6407 74.9107 51.48C74.9107 52.3194 75.593 52.9998 76.4347 52.9998Z" fill="#777777" stroke="#777777" stroke-miterlimit="10"/>
<path d="M58.1877 75.0934C59.0294 75.0934 59.7117 74.4129 59.7117 73.5735C59.7117 72.7342 59.0294 72.0537 58.1877 72.0537C57.3461 72.0537 56.6637 72.7342 56.6637 73.5735C56.6637 74.4129 57.3461 75.0934 58.1877 75.0934Z" fill="#777777" stroke="#777777" stroke-miterlimit="10"/>
<path d="M72.19 61.9454C73.0317 61.9454 73.714 61.265 73.714 60.4256C73.714 59.5862 73.0317 58.9058 72.19 58.9058C71.3483 58.9058 70.666 59.5862 70.666 60.4256C70.666 61.265 71.3483 61.9454 72.19 61.9454Z" fill="#777777" stroke="#777777" stroke-miterlimit="10"/>
<path d="M48.604 78.2657C49.4457 78.2657 50.128 77.5853 50.128 76.7459C50.128 75.9065 49.4457 75.2261 48.604 75.2261C47.7623 75.2261 47.08 75.9065 47.08 76.7459C47.08 77.5853 47.7623 78.2657 48.604 78.2657Z" fill="#777777" stroke="#777777" stroke-miterlimit="10"/>
<path d="M65.4292 70.0954C66.8189 70.0954 67.9454 68.9719 67.9454 67.5861C67.9454 66.2003 66.8189 65.0769 65.4292 65.0769C64.0396 65.0769 62.9131 66.2003 62.9131 67.5861C62.9131 68.9719 64.0396 70.0954 65.4292 70.0954Z" fill="#777777" stroke="#777777" stroke-miterlimit="10"/>
<path d="M24.4145 15.5349V17.5545C24.4145 17.5545 30.9298 16.7385 30.623 19.6456L30.3161 22.5526L23.5656 50.5724C23.5656 50.5724 23.0644 56.3864 15.291 56.366V58.3755H53.9942C53.9942 58.3755 59.2208 48.1243 59.0878 45.3907H58.1775C58.1775 45.3907 49.3609 56.264 44.8912 56.3252L40.4215 56.3864L33.63 56.3252C33.63 56.3252 29.5797 55.907 29.549 52.286C29.5183 48.6649 32.8118 36.9552 32.8118 36.9552C32.8118 36.9552 33.0777 36.0066 33.6914 35.9454C34.3051 35.8842 39.8283 35.9454 39.8283 35.9454C39.8283 35.9454 43.5206 34.5786 43.807 46.0741L44.8503 46.1047C44.8503 46.1047 49.0643 29.7335 49.0643 27.1223L48.021 27.1529C48.021 27.1529 44.6253 34.701 40.8409 34.803L37.0565 34.905L34.7756 34.8744C34.7756 34.8744 33.5687 35.2926 33.7323 33.8033C33.896 32.3141 37.752 17.6565 37.752 17.6565C37.752 17.6565 37.486 16.6467 38.7032 16.6161C39.9203 16.5855 50.9769 16.5855 50.9769 16.5855C50.9769 16.5855 58.0957 19.4824 58.1877 25.7044H59.1083V15.5451H24.4145V15.5349Z" fill="#777777" stroke="#777777" stroke-miterlimit="10"/>
<path d="M85.0263 55.4582C83.666 54.326 82.9909 52.6021 82.9909 50.2867C82.9909 47.9713 83.6148 46.4413 84.8627 45.3397C86.1105 44.238 87.9925 43.6872 90.5086 43.6872H96.8398L97.1364 47.1961H90.5188C89.3732 47.1961 88.5141 47.4511 87.9515 47.9611C87.389 48.4711 87.1026 49.2463 87.1026 50.2867C87.1026 51.4189 87.4811 52.2451 88.2277 52.7959C88.9744 53.3366 90.1199 53.612 91.6541 53.612C93.3315 53.612 94.5794 53.4386 95.3976 53.0816C96.2159 52.7246 96.6352 52.1635 96.6352 51.4087L97.0852 54.5402C96.6966 55.142 96.2261 55.6316 95.6635 56.0192C95.101 56.4068 94.4464 56.6924 93.6997 56.8862C92.9531 57.08 92.1144 57.1718 91.1836 57.1718C88.4323 57.1718 86.3764 56.6006 85.0161 55.4684L85.0263 55.4582ZM96.6454 42.7488C96.6454 41.2902 96.2568 40.158 95.4794 39.3522C94.7021 38.5464 93.5975 38.1384 92.1655 38.1384C91.2757 38.1384 90.4063 38.271 89.5574 38.5464C88.7084 38.8218 87.9515 39.1992 87.2867 39.6786L84.0853 37.4958C84.9342 36.4859 86.0389 35.6903 87.4299 35.1293C88.8107 34.5683 90.3449 34.2827 92.0326 34.2827C93.8839 34.2827 95.459 34.6091 96.7784 35.2619C98.0978 35.9147 99.1002 36.8531 99.7855 38.0874C100.471 39.3216 100.819 40.8108 100.819 42.555V56.8352H96.6557V42.7386L96.6454 42.7488Z" fill="#777777"/>
<path d="M111.64 56.7741C110.484 56.5191 109.41 56.1314 108.408 55.6214C107.405 55.1114 106.485 54.4688 105.636 53.6936L108.234 50.501C109.441 51.419 110.627 52.1024 111.824 52.5614C113.01 53.0204 114.187 53.2448 115.342 53.2448C117.071 53.2448 118.37 52.9796 119.239 52.439C120.109 51.8984 120.538 51.1028 120.538 50.0318C120.538 49.3178 120.303 48.7874 119.833 48.4303C119.362 48.0733 118.769 47.8387 118.073 47.7163C117.368 47.5939 116.386 47.4817 115.107 47.3797C114.995 47.3797 114.872 47.3797 114.739 47.3695C114.616 47.3695 114.494 47.3491 114.371 47.3389C114.309 47.3389 114.258 47.3389 114.197 47.3287C114.136 47.3287 114.084 47.3185 114.023 47.3185C112.581 47.2063 111.353 46.9921 110.351 46.6861C109.349 46.3801 108.52 45.8089 107.845 44.9623C107.18 44.1157 106.843 42.9121 106.843 41.3413C106.843 39.7704 107.16 38.4648 107.815 37.4244C108.459 36.384 109.42 35.5986 110.689 35.0784C111.967 34.5582 113.563 34.293 115.475 34.293C116.631 34.293 117.736 34.395 118.789 34.6092C119.843 34.8234 120.845 35.1396 121.807 35.5578C122.768 35.976 123.689 36.5064 124.578 37.149L121.94 40.3416C120.825 39.6276 119.72 39.0972 118.646 38.7402C117.562 38.3832 116.508 38.2098 115.475 38.2098C113.982 38.2098 112.867 38.4648 112.121 38.9748C111.374 39.4848 111.006 40.2396 111.006 41.2597C111.006 41.8615 111.221 42.3103 111.64 42.6061C112.059 42.9019 112.591 43.1059 113.235 43.2079C113.88 43.3099 114.8 43.3915 115.987 43.4629C116.069 43.4731 116.161 43.4833 116.253 43.4833C116.345 43.4833 116.447 43.4833 116.539 43.5037H116.672C116.672 43.5037 116.754 43.5037 116.805 43.5241C118.37 43.6261 119.689 43.8301 120.784 44.1463C121.878 44.4625 122.799 45.0847 123.545 46.0129C124.292 46.9411 124.66 48.2875 124.66 50.042C124.66 51.6434 124.312 52.9694 123.627 54.0098C122.942 55.0604 121.909 55.8458 120.528 56.3763C119.147 56.9067 117.409 57.1719 115.322 57.1719C114.003 57.1719 112.765 57.0393 111.619 56.7843L111.64 56.7741Z" fill="#777777"/>
<path d="M127.268 34.6091H131.738L138.591 53.9282L136.167 58.661L127.279 34.6091H127.268ZM147.009 34.6091L137.517 62.0475C137.169 63.0573 136.719 63.8631 136.167 64.4547C135.604 65.0463 134.919 65.4747 134.101 65.7297C133.283 65.9847 132.28 66.1173 131.094 66.1173H130.214V61.9149H131.094C131.912 61.9149 132.556 61.7517 133.037 61.4253C133.518 61.0989 133.937 60.5277 134.295 59.7321L142.539 34.6091H147.009Z" fill="#777777"/>
<path d="M156.245 55.7336C154.608 54.7748 153.33 53.4181 152.43 51.6637C151.529 49.9093 151.079 47.8693 151.079 45.564V37.0163C151.079 34.7009 151.529 32.6711 152.43 30.9167C153.33 29.1622 154.598 27.7954 156.245 26.8366C157.881 25.8676 159.784 25.3882 161.942 25.3882C163.732 25.3882 165.378 25.7656 166.882 26.5306C168.385 27.2956 169.643 28.3768 170.646 29.7742C171.658 31.1717 172.344 32.7935 172.702 34.6397H168.212C167.935 33.6707 167.485 32.8037 166.851 32.0387C166.217 31.2737 165.47 30.6821 164.611 30.274C163.752 29.8558 162.862 29.6518 161.952 29.6518C160.673 29.6518 159.559 29.9578 158.597 30.5698C157.636 31.1819 156.889 32.0489 156.367 33.1505C155.836 34.2521 155.57 35.5475 155.57 37.0163V45.564C155.57 47.0227 155.836 48.3079 156.367 49.4197C156.899 50.5315 157.646 51.3985 158.597 52.0003C159.559 52.6123 160.673 52.9081 161.952 52.9081C162.883 52.9081 163.773 52.7143 164.621 52.3267C165.47 51.9391 166.217 51.3679 166.851 50.6131C167.485 49.8583 167.946 48.9607 168.212 47.9101H172.702C172.344 49.7563 171.658 51.3679 170.636 52.7755C169.623 54.1729 168.355 55.2542 166.851 56.0192C165.348 56.7842 163.711 57.1616 161.931 57.1616C159.773 57.1616 157.871 56.6822 156.234 55.7234L156.245 55.7336Z" fill="#777777"/>
<path d="M182.091 56.0293C180.721 55.2744 179.667 54.1728 178.941 52.7244C178.215 51.276 177.857 49.5318 177.857 47.4917V43.8707C177.857 41.8613 178.215 40.1375 178.941 38.6992C179.667 37.261 180.71 36.1696 182.091 35.425C183.462 34.6804 185.119 34.303 187.052 34.303C188.985 34.303 190.642 34.6804 192.012 35.425C193.383 36.1798 194.436 37.2712 195.163 38.6992C195.889 40.1375 196.247 41.8613 196.247 43.8707V47.5529C196.247 49.5828 195.889 51.3066 195.163 52.7448C194.436 54.183 193.393 55.2744 192.012 56.0293C190.642 56.7841 188.985 57.1615 187.052 57.1615C185.119 57.1615 183.462 56.7841 182.091 56.0293ZM190.611 51.5718C191.45 50.613 191.869 49.2768 191.869 47.5427V43.8605C191.869 42.1367 191.45 40.8005 190.611 39.8518C189.772 38.9134 188.586 38.434 187.062 38.434C185.538 38.434 184.341 38.9032 183.513 39.8518C182.674 40.7903 182.255 42.1265 182.255 43.8605V47.5427C182.255 49.2666 182.674 50.613 183.513 51.5718C184.352 52.5306 185.538 53.01 187.062 53.01C188.586 53.01 189.783 52.5306 190.611 51.5718Z" fill="#777777"/>
<path d="M206.311 48.1243C206.311 49.6849 206.71 50.8885 207.508 51.7351C208.306 52.5818 209.421 53.0102 210.873 53.0102C212.325 53.0102 213.41 52.6328 214.197 51.878C214.985 51.1231 215.384 50.0419 215.384 48.6445L215.68 53.2958C215.22 54.3974 214.473 55.3154 213.451 56.06C212.417 56.8046 211.149 57.1718 209.646 57.1718C207.181 57.1718 205.278 56.3864 203.949 54.8054C202.609 53.2244 201.944 51.0007 201.944 48.1345V34.6193H206.322V48.1345L206.311 48.1243ZM215.373 34.6091H219.731V56.8352H215.373V34.6091Z" fill="#777777"/>
<path d="M226.389 34.6092H230.767V56.8353H226.389V34.6092ZM239.921 43.3711C239.921 41.8003 239.512 40.5865 238.693 39.7296C237.875 38.8728 236.73 38.4444 235.257 38.4444C233.784 38.4444 232.72 38.8218 231.943 39.5766C231.166 40.3314 230.777 41.3923 230.777 42.7693L230.327 38.4852C231.012 37.1388 231.912 36.1086 233.027 35.3844C234.132 34.6602 235.369 34.293 236.709 34.293C239.133 34.293 241.005 35.0784 242.324 36.6594C243.644 38.2404 244.309 40.464 244.309 43.3507V56.8455H239.931V43.3711H239.921Z" fill="#777777"/>
<path d="M249.239 34.6092H259.293V38.5465H249.239V34.6092ZM252.788 55.4583C251.949 54.4689 251.53 53.0001 251.53 51.062V28.1423H255.907V51.1028C255.907 51.6434 256.02 52.0616 256.235 52.3574C256.449 52.6532 256.767 52.796 257.176 52.796H259.283V56.9475H256.746C254.946 56.9475 253.627 56.4477 252.788 55.4583Z" fill="#777777"/>
<path d="M269.153 56.009C267.69 55.2338 266.575 54.1016 265.818 52.6123C265.051 51.1231 264.673 49.3177 264.673 47.2063V44.697C264.673 42.4938 265.041 40.617 265.778 39.0666C266.514 37.506 267.588 36.3227 268.989 35.5067C270.39 34.6907 272.078 34.2827 274.062 34.2827C275.924 34.2827 277.509 34.7519 278.829 35.6699C280.148 36.5981 281.15 37.9446 281.846 39.699C282.541 41.4534 282.889 43.5648 282.889 46.0129V47.4715H267.854V43.9626H278.716C278.583 42.147 278.123 40.7394 277.305 39.7296C276.497 38.7198 275.412 38.22 274.052 38.22C272.395 38.22 271.106 38.7606 270.196 39.852C269.286 40.9332 268.836 42.4734 268.836 44.4522V47.2777C268.836 49.1239 269.327 50.5315 270.298 51.5209C271.27 52.5103 272.651 53 274.441 53C275.331 53 276.21 52.8265 277.08 52.4695C277.949 52.1125 278.737 51.6127 279.422 50.9701L282.296 53.8364C281.191 54.8972 279.954 55.7132 278.583 56.2844C277.213 56.8658 275.832 57.1514 274.441 57.1514C272.375 57.1514 270.615 56.7638 269.153 55.9988V56.009Z" fill="#777777"/>
<path d="M288.883 34.6092H293.26V56.8353H288.883V34.6092ZM299.684 38.8116C299.101 38.5668 298.415 38.4444 297.648 38.4444C296.257 38.4444 295.183 38.8218 294.416 39.5868C293.649 40.3518 293.271 41.4127 293.271 42.7693L292.821 38.4852C293.506 37.1592 294.396 36.129 295.48 35.3946C296.564 34.6602 297.771 34.293 299.091 34.293C300.103 34.293 301.024 34.4358 301.852 34.7316C302.67 35.0274 303.397 35.4558 304.01 36.027L301.157 39.8826C300.768 39.4134 300.287 39.0564 299.694 38.8116H299.684Z" fill="#777777"/>
</g>
<defs>
<clipPath id="clip0_24_101">
<rect width="304" height="79" fill="white"/>
</clipPath>
</defs>
</svg>
