<svg width="25" height="25" viewBox="0 0 25 25" fill="none" xmlns="http://www.w3.org/2000/svg">
<path d="M14.2918 0.827842C14.0717 0.5684 13.7978 0.359963 13.489 0.217007C13.1802 0.0740499 12.844 0 12.5038 0C12.1635 0 11.8273 0.0740499 11.5185 0.217007C11.2097 0.359963 10.9358 0.5684 10.7157 0.827842L0.373423 13.0202C0.180408 13.2476 0.0565231 13.5254 0.0163995 13.821C-0.023724 14.1165 0.0215903 14.4173 0.14699 14.6879C0.27239 14.9585 0.472638 15.1876 0.724081 15.3481C0.975524 15.5086 1.26766 15.5938 1.56598 15.5936H6.25181V20.3078C6.25181 20.7222 6.41649 21.1196 6.7096 21.4126C7.00272 21.7057 7.40027 21.8703 7.8148 21.8703H17.1927C17.6072 21.8703 18.0048 21.7057 18.2979 21.4126C18.591 21.1196 18.7557 20.7222 18.7557 20.3078V15.5936H23.4384C23.7367 15.5938 24.0289 15.5086 24.2803 15.3481C24.5318 15.1876 24.732 14.9585 24.8574 14.6879C24.9828 14.4173 25.0281 14.1165 24.988 13.821C24.9479 13.5254 24.824 13.2476 24.631 13.0202L14.2918 0.827842ZM7.03331 23.4375C6.82604 23.4375 6.62727 23.5198 6.48071 23.6663C6.33415 23.8128 6.25181 24.0115 6.25181 24.2187C6.25181 24.4259 6.33415 24.6247 6.48071 24.7712C6.62727 24.9177 6.82604 25 7.03331 25H17.9742C18.1815 25 18.3803 24.9177 18.5268 24.7712C18.6734 24.6247 18.7557 24.4259 18.7557 24.2187C18.7557 24.0115 18.6734 23.8128 18.5268 23.6663C18.3803 23.5198 18.1815 23.4375 17.9742 23.4375H7.03331Z" fill="white"/>
</svg>
