<?xml version="1.0" encoding="UTF-8"?>
<svg id="_Слой_2" data-name="Слой 2" xmlns="http://www.w3.org/2000/svg" viewBox="0 0 78.35 77.45">
  <defs>
    <style>
      .cls-1 {
        fill: none;
        stroke-width: 2px;
      }

      .cls-1, .cls-2 {
        stroke: #1d1d1b;
        stroke-miterlimit: 10;
      }

      .cls-2 {
        fill: #1d1d1b;
      }
    </style>
  </defs>
  <g id="_Слой_1-2" data-name="Слой 1">
    <g>
      <path class="cls-1" d="m41.83,76.32C21.07,78.04,2.85,62.6,1.13,41.83S14.86,2.85,35.62,1.13s38.99,13.73,40.7,34.49"/>
      <circle class="cls-2" cx="76.36" cy="41.23" r="1.49"/>
      <circle class="cls-2" cx="74.73" cy="50.47" r="1.49"/>
      <circle class="cls-2" cx="56.89" cy="72.13" r="1.49"/>
      <circle class="cls-2" cx="70.58" cy="59.24" r="1.49"/>
      <circle class="cls-2" cx="47.52" cy="75.24" r="1.49"/>
      <circle class="cls-2" cx="63.97" cy="66.26" r="2.46"/>
      <path class="cls-2" d="m23.87,15.23v1.98s6.37-.8,6.07,2.05l-.3,2.85-6.6,27.47s-.49,5.7-8.09,5.68v1.97h37.84s5.11-10.05,4.98-12.73h-.89s-8.62,10.66-12.99,10.72l-4.37.06-6.64-.06s-3.96-.41-3.99-3.96,3.19-15.03,3.19-15.03c0,0,.26-.93.86-.99s6,0,6,0c0,0,3.61-1.34,3.89,9.93l1.02.03s4.12-16.05,4.12-18.61l-1.02.03s-3.32,7.4-7.02,7.5l-3.7.1-2.23-.03s-1.18.41-1.02-1.05,3.93-15.83,3.93-15.83c0,0-.26-.99.93-1.02s12-.03,12-.03c0,0,6.96,2.84,7.05,8.94h.9v-9.96H23.87Z"/>
    </g>
  </g>
</svg>